<svg width="157" height="157" viewBox="0 0 157 157" fill="none" xmlns="http://www.w3.org/2000/svg">
<g clip-path="url(#clip0)">
<path d="M33.5 53C47.5833 53 59 41.5833 59 27.5C59 13.4167 47.5833 2 33.5 2C19.4167 2 8 13.4167 8 27.5C8 41.5833 19.4167 53 33.5 53Z" fill="#EF39A8"/>
<path d="M33.9554 48.4464C45.2723 48.4464 54.4464 39.2723 54.4464 27.9553C54.4464 16.6384 45.2723 7.46428 33.9554 7.46428C22.6385 7.46428 13.4643 16.6384 13.4643 27.9553C13.4643 39.2723 22.6385 48.4464 33.9554 48.4464Z" fill="#BD399C"/>
<path d="M33.5 42.9821C42.0506 42.9821 48.9822 36.0505 48.9822 27.5C48.9822 18.9494 42.0506 12.0179 33.5 12.0179C24.9495 12.0179 18.0179 18.9494 18.0179 27.5C18.0179 36.0505 24.9495 42.9821 33.5 42.9821Z" fill="#93388E"/>
<path d="M33.5 37.5179C39.0327 37.5179 43.5178 33.0327 43.5178 27.5C43.5178 21.9673 39.0327 17.4821 33.5 17.4821C27.9673 17.4821 23.4821 21.9673 23.4821 27.5C23.4821 33.0327 27.9673 37.5179 33.5 37.5179Z" fill="#563379"/>
<g clip-path="url(#clip1)">
<path d="M51.9905 94.6015L52.6741 102.354L107.446 103.074L107.275 93.4397L51.9905 94.6015Z" fill="#BABBAE"/>
<path d="M107.189 92.4144L107.36 103.181L122.171 84.069L122.513 73.2457L107.189 92.4144Z" fill="#BABBAE"/>
<path d="M85.5812 10.2463C85.5732 10.246 86.2687 10.3317 86.2604 10.3315L77.2829 10.2996L87.0244 5.77074L87.0024 8.37079L87.0104 9.15404L87.0184 10.3848L85.5812 10.2463Z" fill="#BFC1B1"/>
<path d="M109.029 41.7804V91.1754C109.029 93.3265 107.282 95.0729 105.131 95.0729H51.9167C49.7656 95.0729 48.0192 93.3265 48.0192 91.1754V41.7804H109.029Z" fill="#E4E6D6"/>
<path d="M109.029 41.7804V22.0344C109.029 19.8833 107.282 18.1369 105.131 18.1369H51.9167C49.7656 18.1369 48.0192 19.8833 48.0192 22.0344V41.7804H109.029Z" fill="#E3E6D4"/>
<path d="M53.6556 20.7241H102.226C104.179 20.7241 105.765 22.3102 105.765 24.2637V86.7512C105.765 88.7048 104.179 90.2909 102.226 90.2909H53.6556C51.702 90.2909 50.116 88.7048 50.116 86.7512V24.2637C50.116 22.3102 51.702 20.7241 53.6556 20.7241Z" fill="#DDDFCE"/>
<path d="M55.6321 25.3018H95.7279C97.042 25.3018 98.1088 26.3687 98.1088 27.6828V58.2558C98.1088 59.5699 97.042 60.6368 95.7279 60.6368H55.6321C54.318 60.6368 53.2512 59.5699 53.2512 58.2558V27.6828C53.2512 26.3687 54.318 25.3018 55.6321 25.3018Z" fill="#B3B5A8"/>
<path opacity="0.55" d="M98.0794 54.4052L98.1593 57.666C98.0117 57.8627 98.1912 58.6091 97.9035 59.2005C97.6391 59.819 96.9542 60.3367 96.5608 60.6071L96.5181 56.8348" fill="#D9D9D6" fill-opacity="0.65"/>
<path opacity="0.55" d="M58.0819 55.3116C56.7997 55.9829 55.8271 56.5293 55.1643 56.9507C54.4801 57.3858 53.2128 57.9566 53.263 58.262C53.1974 59.3766 54.2182 60.4259 55.5249 60.6715L58.2786 56.2951" fill="#CBCCC0"/>
<path opacity="0.55" d="M96.5182 56.8348L94.0336 57.9717L57.0603 55.7575L53.1974 58.3276C53.6564 60.0323 53.8295 60.2545 55.525 60.5731L94.765 60.6223C95.2976 60.7007 95.8589 60.6743 96.449 60.5432C96.734 60.4798 97.2332 60.1439 97.5359 59.7759C98.0571 59.1423 98.0596 58.9504 98.0596 57.5736" fill="#CBCCC0"/>
<path opacity="0.55" d="M95.5875 30.3794L56.6962 29.9324L53.418 28.5913C53.2213 26.8703 53.7311 25.6854 55.4266 25.3668L94.7314 25.408C95.6717 25.2812 96.4533 25.3817 97.0761 25.7095C97.2219 25.7862 97.5074 25.9851 97.6662 26.2504C98.1172 27.004 98.1088 27.1847 98.1088 28.5123" fill="#ABACA3"/>
<path d="M92.6635 71.342V72.5222H76.7021V71.402L92.6635 71.342Z" fill="#EBECE4"/>
<path d="M98.8955 71.3303V69.1784H76.7021V71.4405L98.8955 71.3303Z" fill="#CCCEC0"/>
<path d="M92.0441 72.1287H98.8956V73.2434H92.0441V72.1287Z" fill="#EBECE4"/>
<path d="M76.6694 69.1456L78.7019 70.3258L78.6363 71.4732L76.6694 72.5879V69.1456Z" fill="#D2D5C3"/>
<path d="M92.6014 70.7608H98.8955V72.6205H92.6014V70.7608Z" fill="#5B5B5B"/>
<path d="M78.6362 70.2601H98.8955V71.4404H78.6362V70.2601Z" fill="#5B5B5B"/>
<path d="M92.9948 71.2436H96.5352V72.0306H92.9948V71.2436Z" fill="#B3B3B3"/>
<path opacity="0.55" d="M106.431 94.8009C106.423 94.816 106.414 94.8305 106.404 94.8443C106.244 94.9404 106.138 94.9587 105.94 94.9992C105.666 95.0643 104.957 95.0873 104.709 95.0766C104.601 95.08 104.398 95.0714 104.116 95.0739C101.688 95.0954 92.7975 95.0963 77.4225 95.069C69.0162 95.1222 62.5682 95.0322 58.1189 95.0655C58.0022 95.0664 53.7917 95.0674 52.2846 95.0684C52.1476 95.0685 51.9134 95.0829 51.6932 95.069C51.4169 95.0516 51.1657 94.998 51.1528 94.9981" fill="#CACCBA"/>
<path opacity="0.55" d="M51.1488 94.9971C51.1088 94.9961 51.0489 94.971 50.991 94.9641C50.8651 94.9292 50.6942 94.8862 50.4955 94.8071C50.2971 94.7199 50.0689 94.6215 49.8541 94.4816C49.6982 94.3917 49.5593 94.2721 49.4207 94.166C49.0447 93.8241 48.7443 93.51 48.7042 93.3268C48.7332 93.2548 48.8587 93.0325 48.8931 92.9912C49.5504 91.8557 51.6337 90.0199 52.0599 89.9258C52.7222 90.1661 52.6353 90.1692 52.9518 90.2035C53.3951 90.2516 53.2934 90.2508 54.1427 90.289C61.8587 90.286 72.0205 90.3004 81.7047 90.2997C82.095 90.2997 82.4466 90.3169 82.8156 90.2996C83.4279 90.2709 84.0646 90.2851 84.7172 90.2695C86.4984 90.2269 88.4014 90.2267 90.2709 90.2356C91.894 90.2432 93.4791 90.2304 94.9785 90.2895C96.9042 90.2672 98.1748 90.321 99.8856 90.2739C100.001 90.2657 100.502 90.2917 100.621 90.2898C101.66 90.2739 103.086 90.1639 103.601 89.9934C103.714 89.9584 106.302 94.8398 106.399 94.8069" fill="#CACCBA"/>
<path opacity="0.55" d="M48.7042 93.2868C49.9932 91.1808 51.5425 90.3931 52.0547 89.9151C51.825 89.8136 51.1565 89.3265 50.8621 88.9311C50.6626 88.6632 50.2472 87.9737 50.1641 87.3944C50.1404 87.2285 50.138 87.0827 50.1358 86.9191C50.0312 79.3395 50.1048 62.4113 50.1766 46.0558C50.1989 45.1247 50.1497 44.1345 50.1428 43.0885C50.1305 41.2102 50.1386 39.1707 50.1188 37.1024C50.0827 33.3307 50.0981 29.4564 50.1028 26.4729C50.132 26.1768 50.1169 25.7496 50.1109 25.2661C50.1053 24.8246 50.0996 24.336 50.2947 23.8595C50.6151 23.0767 50.8461 22.7086 51.0219 22.6047C50.4727 22.0237 49.7267 21.2005 48.7841 20.1352C48.7716 19.923 48.736 19.828 48.6773 19.8502C48.499 20.1019 48.2889 20.5296 48.0648 21.3979C48.0574 21.4886 48.0213 21.7231 48.0169 22.0053C48.0084 22.5554 48.0184 23.4602 48.0089 24.7306C47.9913 27.0885 48.0265 30.706 48.0169 35.5519C48.0279 46.755 47.9824 64.5713 47.9933 89.0391C48.0037 90.0381 48.0142 90.8679 48.0249 91.5286C48.0402 91.724 48.0922 91.9126 48.1128 92.08C48.151 92.3912 48.3375 92.8015 48.6723 93.3108" fill="#DADBD0"/>
<path opacity="0.55" d="M58.082 30.5777L53.263 28.6108C53.0663 26.8897 53.4597 26.2013 54.5415 25.4145L58.2787 29.5942L58.082 30.5777ZM95.6502 31.7087L97.9122 28.6599C98.4449 27.2093 97.9777 26.7258 97.1254 25.6112L94.4373 30.2007" fill="#CBCCC0"/>
<path d="M61.5589 26.889H92.9599C95.6931 26.889 97.912 29.108 97.912 31.8411V53.5066C97.912 56.2398 95.6931 58.4588 92.9599 58.4588H61.5589C58.8257 58.4588 56.6068 56.2398 56.6068 53.5066V31.8411C56.6068 29.108 58.8257 26.889 61.5589 26.889Z" fill="#788080"/>
<path d="M62.6044 28.5616H92.898C95.4482 28.5616 97.5187 30.6321 97.5187 33.1824V52.6578C97.5187 55.2081 95.4482 57.2786 92.898 57.2786H62.6044C60.0541 57.2786 57.9836 55.2081 57.9836 52.6578V33.1824C57.9836 30.6321 60.0541 28.5616 62.6044 28.5616Z" fill="#D6F7FB"/>
<path d="M56.645 76.5622L59.5434 76.6089L59.5008 79.9722L56.645 79.8788V76.5622Z" fill="white"/>
<path d="M56.9007 77.0312L59.2877 77.0657L59.2526 79.546L56.9007 79.4771V77.0312Z" fill="#FF9900"/>
<path d="M57.199 77.3722L58.9893 77.3973L58.9629 79.2048L57.199 79.1546V77.3722Z" fill="#9B3B3B"/>
<path d="M122.741 6.14113L118.517 9.96022L109.506 19.0316L49.3516 19.0962C54.745 14.9791 57.8223 13.3153 60.877 11.6667C63.4104 10.2996 65.9552 8.81547 69.5486 7.10597C70.608 6.60196 71.6462 5.97089 72.6198 5.77831C75.7734 5.69269 82.2867 5.75336 86.9704 5.7421C87.6784 5.74042 79.1033 9.7869 79.8463 9.7869C84.951 9.7869 91.8295 9.59666 99.6905 9.60139C101.657 9.42909 104.847 6.0272 106.506 6.0272C107.702 6.0272 109.806 5.86145 114.652 6.0272L122.741 6.14113Z" fill="#DDDFCE"/>
<path d="M122.519 75.2784L122.741 10.8123L122.698 7.86433L122.73 6.14471C118.665 9.59735 114.203 13.0826 110.035 17.3411C109.068 18.3291 108.116 19.3588 107.189 20.4393L107.329 21.3681L107.291 93.4077C107.192 93.9005 106.946 94.3267 106.399 94.855C106.517 94.8229 106.613 94.7837 106.725 94.7322C107.203 94.511 107.655 94.2555 108.022 93.9864L122.519 75.2784Z" fill="#DDDFCE"/>
<path d="M103.772 22.7749C103.847 22.7095 104.626 21.4647 105.48 21.4647C106.221 20.7241 107.094 21.3437 107.246 21.1798C107.743 20.6472 109.358 19.0717 109.571 18.8875C116.444 12.959 121.784 8.40926 122.533 6.58382C122.589 6.50765 122.755 6.22551 122.72 6.13395C122.568 6.12591 121.99 6.37697 121.983 6.37265C117.986 9.26399 114.991 11.5793 113 13.3187C112.137 14.0726 110.94 15.1739 109.411 16.6226L107.474 18.9012L103.772 22.7749Z" fill="#E6E8D8"/>
<path d="M86.3707 126.373C86.2272 126.559 84.2197 126.355 84.0015 126.428C82.5793 126.909 85.0486 124.613 84.2265 122.33C85.6889 117.395 92.3344 109.909 104.939 99.8671C105.747 103.299 105.834 105.384 105.199 106.122C98.8376 113.522 93.3388 117.339 86.3707 126.373Z" fill="#BABBAE"/>
<path d="M15.3154 121.774C18.3234 118.66 27.5427 109.592 35.8324 104.538C37.256 103.67 42.2398 99.8888 44.0392 99.6447C58.248 100.296 76.7211 99.5538 104.934 99.8719L83.7271 122.552L15.3154 121.774Z" fill="#DDDFCE"/>
<path d="M85.638 127.096C85.4516 127.146 85.1676 127.16 84.7858 127.138L49.2203 127.985L14.3385 128.335C12.2577 125.623 14.485 122.608 15.4621 121.607C32.1052 120.596 52.8723 120.827 84.6824 121.683C85.7074 124.44 85.7306 125.159 86.3951 126.401C86.2017 126.78 85.9493 127.012 85.638 127.096Z" fill="#DDDFCE"/>
<path d="M84.7801 121.885L84.8319 122.759L85.8792 121.273L87.3279 119.527C96.6045 109.601 101.553 104.077 104.157 101.229C104.229 101.114 104.991 100.011 104.946 99.872C104.747 99.8598 102.994 100.569 102.985 100.562C98.4746 104.79 95.1093 108.163 92.8892 110.681C91.7504 111.973 90.1872 113.864 88.1996 116.353L84.0229 121.968L84.7801 121.885Z" fill="#E4E6D6"/>
<path d="M24.144 123.166C20.6641 123.087 17.5004 123.166 15.0224 122.803C14.7237 122.683 14.7725 122.405 15.1689 121.968L23.3269 121.913L46.3841 121.468C66.0567 121.248 78.3023 121.302 83.1168 121.625C83.7425 121.667 84.3566 121.417 84.7313 121.468C84.6816 121.685 84.5594 121.842 84.3649 121.941C84.0544 122.098 84.4675 123.088 84.0229 123.192C83.9273 123.112 83.6016 122.945 83.0459 122.691C82.1904 122.499 81.6287 122.412 81.3606 122.432C77.9737 122.506 71.1051 122.573 67.9135 122.573C58.8955 122.789 52.1919 123.018 46.4196 123.018C39.9714 123.018 33.3278 123.166 24.144 123.166Z" fill="#E6E8D8"/>
<path d="M37.9391 107.637L37.9543 107.736C38.9193 107.284 39.5991 106.436 40.0267 105.446L38.4814 105.433L35.2878 105.469C34.6958 106.286 33.9433 107.005 33.0251 107.62C34.7917 108.153 36.4316 108.16 37.9391 107.637Z" fill="#D2D5C6"/>
<path d="M38.2135 110.044L37.9354 107.644C38.3644 107.299 39.651 106.437 40.0212 105.446L40.1297 107.914L38.2135 110.044Z" fill="#B1B3A4"/>
<path d="M37.9391 107.637L38.2187 110.036L33.2735 110.044L33.0214 107.624C34.9252 107.933 36.5677 107.942 37.9391 107.637Z" fill="#ECEEE0"/>
<path d="M44.5734 107.746L44.5856 107.872C45.5506 107.42 46.2019 106.436 46.6295 105.446L45.0842 105.433L41.8906 105.469C41.2987 106.286 40.5461 107.005 39.628 107.62C41.4894 108.086 43.1292 108.094 44.5419 107.637L44.5734 107.746Z" fill="#D2D5C6"/>
<path d="M44.8164 110.044L44.5382 107.644C44.9718 107.339 46.2585 106.466 46.6282 105.439L46.7325 107.914L44.8164 110.044Z" fill="#B1B3A4"/>
<path d="M44.5419 107.637L44.8215 110.036L39.8763 110.044L39.6241 107.624C41.528 107.933 43.1705 107.942 44.5419 107.637Z" fill="#ECEEE0"/>
<path d="M51.4291 107.637L51.443 107.743C52.4079 107.291 53.0891 106.436 53.5167 105.446L51.9714 105.433L48.7778 105.469C48.1859 106.286 47.4334 107.005 46.5152 107.62C48.3766 108.086 50.0165 108.094 51.4291 107.637Z" fill="#D2D5C6"/>
<path d="M51.7036 110.044L51.4254 107.644C51.7844 107.404 53.0737 106.54 53.516 105.446L53.6197 107.914L51.7036 110.044Z" fill="#B1B3A4"/>
<path d="M51.4291 107.637L51.7087 110.036L46.7636 110.044L46.5114 107.624C48.4152 107.933 50.0578 107.942 51.4291 107.637Z" fill="#ECEEE0"/>
<path d="M58.0004 107.709L58.0133 107.802C58.9783 107.35 59.6604 106.508 60.088 105.518C58.9801 105.597 58.1257 105.635 57.5248 105.634C57.0148 105.632 56.2896 105.601 55.3491 105.54C54.7572 106.357 54.0046 107.077 53.0865 107.692C54.9479 108.158 56.5878 108.165 58.0004 107.709Z" fill="#D2D5C6"/>
<path d="M58.2749 110.116L57.9967 107.716C58.3759 107.486 59.6643 106.62 60.0863 105.515L60.191 107.986L58.2749 110.116Z" fill="#B1B3A4"/>
<path d="M58.0004 107.709L58.28 110.108L53.3348 110.116L53.0826 107.696C54.9864 108.005 56.629 108.014 58.0004 107.709Z" fill="#ECEEE0"/>
<path d="M64.7613 107.565L64.779 107.694C65.744 107.243 66.4213 106.364 66.8489 105.374L64.3638 105.522L62.11 105.397C61.5181 106.214 60.7655 106.933 59.8474 107.548C61.7088 108.014 63.3486 108.022 64.7613 107.565Z" fill="#D2D5C6"/>
<path d="M65.0357 109.972L64.7576 107.572C65.1911 107.267 66.4702 106.396 66.8399 105.369L66.9519 107.842L65.0357 109.972Z" fill="#B1B3A4"/>
<path d="M64.7612 107.565L65.0408 109.964L60.0956 109.972L59.8435 107.552C61.7473 107.861 63.3899 107.87 64.7612 107.565Z" fill="#ECEEE0"/>
<path d="M71.2693 107.637L71.2852 107.729C72.2502 107.277 72.9293 106.436 73.3569 105.446C72.2465 105.536 71.3901 105.58 70.7876 105.578C70.2789 105.576 69.5557 105.54 68.6181 105.469C68.0261 106.286 67.2634 107.01 66.3453 107.625C68.2067 108.09 69.8567 108.093 71.2693 107.637Z" fill="#D2D5C6"/>
<path d="M71.5439 110.044L71.2657 107.644C71.6992 107.339 72.9856 106.466 73.3553 105.439L73.46 107.914L71.5439 110.044Z" fill="#B1B3A4"/>
<path d="M71.2693 107.637L71.5489 110.036L66.6037 110.044L66.3516 107.624C68.2554 107.933 69.8979 107.942 71.2693 107.637Z" fill="#ECEEE0"/>
<path d="M77.5879 107.637L77.6021 107.715C78.5671 107.263 79.2479 106.436 79.6755 105.446C78.6739 105.53 77.9014 105.574 77.3579 105.578C76.7902 105.582 75.9831 105.545 74.9366 105.469C74.3447 106.286 73.588 107.01 72.6698 107.625C74.5312 108.09 76.1752 108.093 77.5879 107.637Z" fill="#D2D5C6"/>
<path d="M77.8623 110.044L77.5842 107.644C78.0177 107.339 79.2994 106.48 79.6691 105.453L79.7785 107.914L77.8623 110.044Z" fill="#B1B3A4"/>
<path d="M77.5878 107.637L77.8674 110.036L72.9222 110.044L72.6701 107.624C74.5739 107.933 76.2165 107.942 77.5878 107.637Z" fill="#ECEEE0"/>
<path d="M84.4751 107.637L84.5633 107.712C85.5282 107.26 86.1629 106.374 86.5905 105.383C85.4203 105.554 84.5166 105.637 83.8794 105.634C83.3967 105.631 82.7116 105.576 81.8238 105.469C81.2319 106.286 80.4713 107.006 79.5532 107.621C81.4146 108.087 83.0625 108.093 84.4751 107.637Z" fill="#D2D5C6"/>
<path d="M84.7497 110.044L84.4715 107.644C84.905 107.339 86.2185 106.405 86.5881 105.379L86.6657 107.914L84.7497 110.044Z" fill="#B1B3A4"/>
<path d="M84.7497 110.044L84.4715 107.644C84.905 107.339 86.2185 106.405 86.5881 105.379L86.6657 107.914L84.7497 110.044Z" fill="#B1B3A4"/>
<path d="M84.4752 107.637L84.7548 110.036L79.8094 110.044L79.5573 107.624C81.4611 107.933 83.1037 107.942 84.4752 107.637Z" fill="#ECEEE0"/>
<path d="M91.4254 107.637L91.4511 107.809C92.416 107.357 93.0855 106.436 93.513 105.446C92.4108 105.536 91.5606 105.58 90.9626 105.578C90.4495 105.576 89.72 105.54 88.7741 105.469C88.1822 106.286 87.4297 107.005 86.5115 107.62C88.3729 108.086 90.0128 108.094 91.4254 107.637Z" fill="#D2D5C6"/>
<path d="M91.7 110.044L91.4252 107.639C91.8502 107.334 93.1342 106.472 93.5104 105.442L93.6161 107.914L91.7 110.044Z" fill="#B1B3A4"/>
<path d="M91.4255 107.637L91.7051 110.036L86.7599 110.044L86.5078 107.624C88.4115 107.933 90.0541 107.942 91.4255 107.637Z" fill="#ECEEE0"/>
<path d="M45.313 102.824L45.3164 102.859C46.2251 102.434 46.8763 101.694 47.2789 100.761L45.8237 100.749L42.8162 100.782C42.2588 101.552 41.5501 102.229 40.6855 102.809C42.3491 103.31 43.8934 103.317 45.313 102.824Z" fill="#D2D5C6"/>
<path d="M45.5715 105.091L45.3095 102.831C45.6832 102.546 46.8967 101.729 47.2775 100.757L47.3759 103.085L45.5715 105.091Z" fill="#B1B3A4"/>
<path d="M45.313 102.824L45.5763 105.084L40.9193 105.091L40.6819 102.812C42.4747 103.103 44.0215 103.111 45.313 102.824Z" fill="#ECEEE0"/>
<path d="M51.531 102.824L51.5379 102.875C52.4466 102.45 53.0942 101.694 53.4969 100.761L52.0417 100.749L49.0342 100.782C48.4768 101.552 47.7681 102.229 46.9035 102.809C48.6564 103.247 50.2007 103.254 51.531 102.824Z" fill="#D2D5C6"/>
<path d="M51.7894 105.091L51.5275 102.831C51.9234 102.542 53.1373 101.727 53.4959 100.759L53.5939 103.085L51.7894 105.091Z" fill="#B1B3A4"/>
<path d="M51.531 102.824L51.7943 105.084L47.1373 105.091L46.8999 102.812C48.6927 103.103 50.2395 103.111 51.531 102.824Z" fill="#ECEEE0"/>
<path d="M58.0168 102.824L58.0204 102.87C58.9291 102.444 59.58 101.694 59.9827 100.761L58.5275 100.749L55.52 100.782C54.9626 101.552 54.2539 102.229 53.3893 102.809C55.1422 103.247 56.6865 103.254 58.0168 102.824Z" fill="#D2D5C6"/>
<path d="M58.2752 105.091L58.0132 102.831C58.4051 102.546 59.619 101.729 59.9815 100.757L60.0796 103.085L58.2752 105.091Z" fill="#B1B3A4"/>
<path d="M58.0167 102.824L58.2801 105.084L53.6231 105.091L53.3857 102.812C55.1785 103.103 56.7253 103.111 58.0167 102.824Z" fill="#ECEEE0"/>
<path d="M64.205 102.892L64.2126 102.945C65.1213 102.52 65.7682 101.761 66.1709 100.829C65.1275 100.903 64.3229 100.939 63.7571 100.938C63.2768 100.937 62.5939 100.907 61.7082 100.85C61.1508 101.619 60.4421 102.297 59.5775 102.876C61.3304 103.315 62.8747 103.322 64.205 102.892Z" fill="#D2D5C6"/>
<path d="M64.4634 105.159L64.2015 102.899C64.5664 102.61 65.7779 101.801 66.1675 100.833L66.2679 103.153L64.4634 105.159Z" fill="#B1B3A4"/>
<path d="M64.2049 102.892L64.4682 105.152L59.8113 105.159L59.5739 102.88C61.3667 103.171 62.9135 103.179 64.2049 102.892Z" fill="#ECEEE0"/>
<path d="M70.5717 102.756L70.5885 102.878C71.4972 102.453 72.1349 101.626 72.5376 100.693L70.1974 100.833L68.0749 100.715C67.5175 101.484 66.8088 102.161 65.9442 102.741C67.6971 103.179 69.2414 103.187 70.5717 102.756Z" fill="#D2D5C6"/>
<path d="M70.8302 105.024L70.5682 102.763C70.9765 102.476 72.1811 101.656 72.5292 100.689L72.6346 103.017L70.8302 105.024Z" fill="#B1B3A4"/>
<path d="M70.5717 102.757L70.835 105.016L66.178 105.024L65.9406 102.744C67.7334 103.035 69.2802 103.044 70.5717 102.757Z" fill="#ECEEE0"/>
<path d="M76.7004 102.824L76.7154 102.911C77.6241 102.486 78.2637 101.694 78.6664 100.761C77.6207 100.846 76.8141 100.888 76.2468 100.885C75.7678 100.884 75.0867 100.849 74.2037 100.782C73.6463 101.552 72.9281 102.233 72.0634 102.813C73.8163 103.251 75.3701 103.254 76.7004 102.824Z" fill="#D2D5C6"/>
<path d="M76.9589 105.091L76.697 102.831C77.1052 102.543 78.3166 101.721 78.6647 100.755L78.7634 103.085L76.9589 105.091Z" fill="#B1B3A4"/>
<path d="M76.7004 102.824L76.9637 105.084L72.3068 105.091L72.0693 102.812C73.8622 103.103 75.409 103.111 76.7004 102.824Z" fill="#ECEEE0"/>
<path d="M82.6507 102.824L82.6641 102.898C83.5728 102.473 84.2139 101.694 84.6166 100.761C83.6734 100.84 82.9459 100.882 82.4341 100.885C81.8995 100.889 81.1395 100.855 80.1539 100.782C79.5965 101.552 78.8839 102.233 78.0193 102.813C79.7722 103.251 81.3204 103.254 82.6507 102.824Z" fill="#D2D5C6"/>
<path d="M82.9091 105.091L82.6472 102.831C83.0554 102.543 84.2623 101.735 84.6104 100.768L84.7134 103.085L82.9091 105.091Z" fill="#B1B3A4"/>
<path d="M82.6508 102.824L82.9141 105.084L78.2571 105.091L78.0196 102.812C79.8125 103.103 81.3593 103.111 82.6508 102.824Z" fill="#ECEEE0"/>
<path d="M89.1364 102.824L89.2194 102.894C90.1282 102.469 90.7259 101.634 91.1286 100.702C90.0266 100.862 89.1755 100.941 88.5754 100.937C88.1209 100.935 87.4756 100.883 86.6397 100.782C86.0822 101.551 85.366 102.23 84.5013 102.809C86.2542 103.248 87.8061 103.254 89.1364 102.824Z" fill="#D2D5C6"/>
<path d="M89.3949 105.091L89.1329 102.831C89.5412 102.543 90.7782 101.665 91.1263 100.698L91.1993 103.085L89.3949 105.091Z" fill="#B1B3A4"/>
<path d="M89.3949 105.091L89.1329 102.831C89.5412 102.543 90.7782 101.665 91.1263 100.698L91.1993 103.085L89.3949 105.091Z" fill="#B1B3A4"/>
<path d="M89.1365 102.824L89.3998 105.084L84.7428 105.091L84.5053 102.812C86.2982 103.103 87.845 103.111 89.1365 102.824Z" fill="#ECEEE0"/>
<path d="M95.6813 102.824L95.7054 102.986C96.6141 102.561 97.2445 101.693 97.6472 100.761C96.6092 100.845 95.8086 100.887 95.2454 100.885C94.7622 100.884 94.0752 100.849 93.1845 100.782C92.6271 101.551 91.9184 102.229 91.0538 102.808C92.8067 103.247 94.351 103.254 95.6813 102.824Z" fill="#D2D5C6"/>
<path d="M95.9402 105.091L95.6815 102.826C96.0817 102.539 97.2908 101.727 97.6451 100.758L97.7445 103.085L95.9402 105.091Z" fill="#B1B3A4"/>
<path d="M95.6817 102.824L95.945 105.084L91.288 105.091L91.0506 102.812C92.8434 103.103 94.3903 103.111 95.6817 102.824Z" fill="#ECEEE0"/>
<path d="M31.6854 112.675L31.6816 112.643C32.6763 112.177 33.3966 111.437 33.8374 110.417C32.6334 110.597 31.7037 110.68 31.0481 110.665C30.5553 110.653 29.8567 110.578 28.9524 110.44C28.3422 111.282 27.5665 112.023 26.62 112.658C28.441 113.207 30.1315 113.215 31.6854 112.675Z" fill="#D2D5C6"/>
<path d="M31.9684 115.157L31.6817 112.683C32.1286 112.368 33.4826 111.406 33.8637 110.348L33.9437 112.961L31.9684 115.157Z" fill="#B1B3A4"/>
<path d="M31.6855 112.676L31.9737 115.149L26.8761 115.157L26.6161 112.662C28.5787 112.981 30.2718 112.99 31.6855 112.676Z" fill="#ECEEE0"/>
<path d="M38.4919 112.676L38.4881 112.644C39.4828 112.178 40.2031 111.438 40.6439 110.417C39.5373 110.528 38.6835 110.583 38.0826 110.582C37.5375 110.581 36.7629 110.534 35.7589 110.441C35.1487 111.283 34.373 112.024 33.4265 112.659C35.3453 113.139 37.0357 113.146 38.4919 112.676Z" fill="#D2D5C6"/>
<path d="M38.7748 115.157L38.4881 112.683C38.935 112.368 40.289 111.406 40.6701 110.348L40.75 112.961L38.7748 115.157Z" fill="#B1B3A4"/>
<path d="M38.4919 112.676L38.7802 115.149L33.6825 115.157L33.4226 112.662C35.3851 112.981 37.0783 112.99 38.4919 112.676Z" fill="#ECEEE0"/>
<path d="M45.5914 112.676L45.5876 112.644C46.5823 112.178 47.3026 111.438 47.7434 110.417C46.6614 110.526 45.8267 110.581 45.2391 110.582C44.6806 110.583 43.8871 110.536 42.8584 110.441C42.2482 111.283 41.4725 112.024 40.526 112.659C42.4448 113.139 44.1352 113.146 45.5914 112.676Z" fill="#D2D5C6"/>
<path d="M45.8743 115.157L45.5876 112.683C46.0345 112.368 47.3886 111.406 47.7696 110.348L47.8496 112.961L45.8743 115.157Z" fill="#B1B3A4"/>
<path d="M45.5914 112.676L45.8796 115.149L40.7819 115.157L40.522 112.662C42.4846 112.981 44.1777 112.99 45.5914 112.676Z" fill="#ECEEE0"/>
<path d="M52.3653 112.75L52.3615 112.718C53.3562 112.252 54.0765 111.512 54.5173 110.492C53.4563 110.653 52.5862 110.71 51.9071 110.665L49.6323 110.515C49.0221 111.357 48.2463 112.098 47.2999 112.733C49.2187 113.213 50.9091 113.22 52.3653 112.75Z" fill="#D2D5C6"/>
<path d="M52.6482 115.231L52.3615 112.757C52.8084 112.442 54.1624 111.48 54.5435 110.422L54.6235 113.035L52.6482 115.231Z" fill="#B1B3A4"/>
<path d="M52.3653 112.75L52.6535 115.223L47.5559 115.231L47.296 112.736C49.2585 113.055 50.9516 113.064 52.3653 112.75Z" fill="#ECEEE0"/>
<path d="M59.3346 112.601L59.3568 112.617C60.3515 112.151 61.0457 111.364 61.4865 110.343C60.4394 110.425 59.6318 110.468 59.0636 110.471C58.4865 110.474 57.6658 110.439 56.6015 110.366C55.9914 111.209 55.2156 111.95 54.2692 112.584C56.188 113.064 57.8784 113.072 59.3346 112.601Z" fill="#D2D5C6"/>
<path d="M59.6175 115.083L59.3307 112.609C59.7552 112.31 61.0816 111.421 61.4832 110.344L61.5927 112.887L59.6175 115.083Z" fill="#B1B3A4"/>
<path d="M59.3346 112.602L59.6228 115.075L54.5252 115.083L54.2653 112.588C56.2278 112.907 57.9209 112.916 59.3346 112.602Z" fill="#ECEEE0"/>
<path d="M66.0433 112.676L66.0736 112.737C67.0682 112.271 67.7544 111.438 68.1952 110.417C67.0669 110.491 66.1969 110.527 65.5851 110.526C65.0519 110.526 64.2936 110.497 63.3102 110.441C62.7001 111.283 61.9243 112.024 60.9778 112.659C62.8966 113.139 64.5871 113.146 66.0433 112.676Z" fill="#D2D5C6"/>
<path d="M66.3262 115.157L66.0395 112.683C66.4284 112.385 67.7554 111.493 68.1925 110.415L68.3014 112.961L66.3262 115.157Z" fill="#B1B3A4"/>
<path d="M66.0433 112.676L66.3315 115.149L61.2338 115.157L60.9739 112.662C62.9364 112.981 64.6296 112.99 66.0433 112.676Z" fill="#ECEEE0"/>
<path d="M72.5566 112.675L72.5798 112.82C73.5745 112.354 74.2678 111.438 74.7086 110.417C73.7 110.486 72.9222 110.522 72.3752 110.526C71.7772 110.531 70.9267 110.503 69.8236 110.441C69.2134 111.283 68.4336 112.029 67.4872 112.664C69.406 113.144 71.1004 113.146 72.5566 112.675Z" fill="#D2D5C6"/>
<path d="M72.8395 115.157L72.5528 112.683C72.946 112.375 74.272 111.489 74.7047 110.422L74.8147 112.961L72.8395 115.157Z" fill="#B1B3A4"/>
<path d="M72.5566 112.676L72.8449 115.149L67.7472 115.157L67.4873 112.662C69.4498 112.981 71.143 112.99 72.5566 112.676Z" fill="#ECEEE0"/>
<path d="M79.6561 112.675L79.6661 112.754C80.6652 112.319 81.3994 111.41 81.8338 110.356C80.6182 110.509 79.6799 110.585 79.0188 110.582C78.5271 110.579 77.8285 110.532 76.9231 110.44C76.3129 111.282 75.5291 112.026 74.5826 112.66C76.5014 113.14 78.1999 113.146 79.6561 112.675Z" fill="#D2D5C6"/>
<path d="M79.9391 115.157L79.6523 112.683C80.0993 112.368 81.4534 111.406 81.8344 110.348L81.9144 112.961L79.9391 115.157Z" fill="#B1B3A4"/>
<path d="M79.9391 115.157L79.6523 112.683C80.0993 112.368 81.4534 111.406 81.8344 110.348L81.9144 112.961L79.9391 115.157Z" fill="#B1B3A4"/>
<path d="M79.6561 112.676L79.9444 115.149L74.8467 115.157L74.5868 112.662C76.5493 112.981 78.2425 112.99 79.6561 112.676Z" fill="#ECEEE0"/>
<path d="M86.8203 112.675L86.8374 112.785C87.8321 112.32 88.5674 111.387 89.0081 110.367C87.9003 110.486 87.0454 110.548 86.4435 110.554C85.8911 110.56 85.1057 110.522 84.0873 110.441C83.4772 111.283 82.7005 112.029 81.754 112.664C83.6728 113.144 85.3642 113.146 86.8203 112.675Z" fill="#D2D5C6"/>
<path d="M87.1034 115.148L86.817 112.683C87.2639 112.368 88.6215 111.425 89.0025 110.367L89.0789 112.961L87.1034 115.148Z" fill="#B1B3A4"/>
<path d="M86.8207 112.676L87.1089 115.149L82.0113 115.157L81.7513 112.662C83.7138 112.981 85.407 112.99 86.8207 112.676Z" fill="#ECEEE0"/>
<path d="M35.1047 117.123L35.1544 117.117C36.1491 116.651 36.8158 115.886 37.2566 114.865C36.1568 114.956 35.3084 115.002 34.7116 115.002C34.163 115.002 33.383 114.964 32.3716 114.888C31.7615 115.73 30.9857 116.472 30.0392 117.106C31.958 117.586 33.6485 117.594 35.1047 117.123Z" fill="#D2D5C6"/>
<path d="M35.3879 119.605L35.1011 117.131C35.548 116.816 36.868 115.917 37.249 114.859L37.363 117.409L35.3879 119.605Z" fill="#B1B3A4"/>
<path d="M35.1049 117.124L35.3931 119.597L30.2955 119.605L30.0356 117.11C31.9981 117.429 33.6912 117.438 35.1049 117.124Z" fill="#ECEEE0"/>
<path d="M68.0124 117.027L68.1345 119.55L37.4415 119.613C37.4075 118.571 37.3372 117.728 37.2247 117.076C56.1177 117.203 66.2487 117.243 68.0124 117.027Z" fill="#ECEEE0"/>
<path d="M37.2247 117.075C38.2912 116.288 39.0178 115.521 39.3985 114.768C46.213 115.228 56.4549 115.246 70.1007 114.796C69.8185 115.608 69.1182 116.317 68.0307 117.041C56.8003 117.533 46.5458 117.589 37.2247 117.075Z" fill="#D2D5C6"/>
<path d="M68.1386 119.541L67.9333 117.043C68.3803 116.728 69.7165 115.852 70.0976 114.794L70.2229 117.242L68.1386 119.541Z" fill="#B1B3A4"/>
<path d="M84.2672 121.482L83.51 121.568L84.7831 127.151C85.1408 127.185 85.4094 127.167 85.5891 127.096C85.8189 127.005 86.0712 126.764 86.3463 126.373L84.7801 120.995L84.2672 121.482Z" fill="#E4E6D6"/>
<path d="M75.3057 117.233L75.44 117.164C76.4347 116.698 76.9377 115.886 77.3785 114.865C76.2296 114.979 75.3433 115.034 74.7195 115.03C74.1973 115.027 73.4553 114.979 72.4935 114.888C71.8833 115.731 71.1076 116.472 70.1611 117.106C72.0799 117.586 73.7703 117.594 75.2265 117.123L75.3057 117.233Z" fill="#D2D5C6"/>
<path d="M75.5099 119.605L75.2232 117.131C75.6701 116.816 76.9121 115.92 77.3823 114.863L77.4852 117.409L75.5099 119.605Z" fill="#B1B3A4"/>
<path d="M75.227 117.124L75.5152 119.597L70.4176 119.605L70.1577 117.11C72.1202 117.429 73.8133 117.438 75.227 117.124Z" fill="#ECEEE0"/>
<path d="M27.7596 117.159L27.8451 117.145C28.8398 116.679 29.4882 115.886 29.929 114.865C28.8083 114.977 27.9437 115.032 27.3351 115.03C26.7977 115.028 26.0339 114.981 25.044 114.888C24.4338 115.731 23.6581 116.472 22.7116 117.106C24.5326 117.655 26.2178 117.685 27.7718 117.145L27.7596 117.159Z" fill="#D2D5C6"/>
<path d="M28.0604 119.605L27.7737 117.131C28.1969 116.821 29.5158 115.929 29.9185 114.863L30.0356 117.409L28.0604 119.605Z" fill="#B1B3A4"/>
<path d="M27.7774 117.124L28.0657 119.597L22.968 119.605L22.7081 117.11C24.6706 117.429 26.3638 117.438 27.7774 117.124Z" fill="#ECEEE0"/>
<path d="M82.3916 117.124L82.6397 116.955C83.6344 116.49 84.1028 115.886 84.5436 114.865L81.9741 115.002L79.6586 114.889C79.0484 115.731 78.2727 116.472 77.3262 117.107C79.245 117.587 80.9355 117.594 82.3916 117.124Z" fill="#D2D5C6"/>
<path d="M82.6746 119.605L82.3879 117.131C82.8348 116.816 84.1419 115.892 84.551 114.856L84.6497 117.409L82.6746 119.605Z" fill="#B1B3A4"/>
<path d="M82.3917 117.124L82.68 119.597L77.5823 119.605L77.3223 117.11C79.2849 117.429 80.9781 117.438 82.3917 117.124Z" fill="#ECEEE0"/>
<path d="M13.6575 125.845C16.7512 125.726 27.1347 125.877 34.4351 125.835C49.7985 125.748 62.8117 125.421 78.1396 125.101C78.248 125.099 78.3565 125.093 78.4651 125.094C80.8751 125.122 85.1412 125.218 85.3693 124.946C87.9746 121.832 93.5621 115.613 105.41 102.819" stroke="#686767" stroke-width="2" stroke-miterlimit="3" stroke-linecap="round"/>
<path d="M115.864 75.4414L124.022 69.1645C128.924 65.3927 135.494 71.001 132.539 76.4345L131.633 78.0988C130.517 80.1519 131.398 82.721 133.54 83.6559V83.6559C137.506 85.3868 136.259 91.3086 131.932 91.2942L128.759 91.2836C124.663 91.27 122.626 96.2511 125.459 99.2086V99.2086C128.668 102.559 125.747 108.147 121.197 107.237L119.655 106.928C114.367 105.87 111.124 112.531 115.22 116.04L116.547 117.177" stroke="#DDDFCE" stroke-width="2" stroke-miterlimit="3" stroke-linecap="square"/>
<path d="M130.001 130.415C132.46 129.228 133.476 128.064 133.068 126.922C132.964 126.632 132.798 125.997 132.571 125.015C126.46 118.18 122.334 114.693 120.194 114.557C118.686 114.46 116.95 114.774 114.91 115.284" fill="#DDDFCE"/>
<path d="M122.149 131.367C124.515 130.054 129.88 128.316 129.36 127.213C129.228 126.933 129.001 126.315 128.679 125.359C121.618 118.755 117.002 115.446 114.832 115.434C113.304 115.426 111.459 116.119 109.579 116.9" fill="#DFE1D3"/>
<path d="M114.921 115.281C115.579 116.812 116.328 117.953 117.17 118.703L114.921 115.281ZM125.134 132.26C127.137 131.639 128.76 131.024 130.001 130.415L125.134 132.26Z" fill="#DDDFCE"/>
<path d="M109.276 121.124C112.074 123.923 116.135 127.918 121.457 133.111C123.577 132.805 124.804 132.51 125.136 132.225C121.999 127.588 117.656 123.17 112.105 118.969L109.579 116.9L109.267 121.09" fill="#BABBAE"/>
<path d="M123.006 129.351L126.71 128.36L128.762 127.498L132.562 124.981L133.122 126.944L133.274 127.848L133.251 128.021C132.982 128.405 132.746 128.693 132.543 128.886C132.344 129.074 132.017 129.322 131.562 129.629C131.006 129.955 130.569 130.198 130.251 130.359C129.652 130.662 129.116 130.887 128.482 131.148C127.592 131.516 126.824 131.808 125.892 132.1C125.585 132.197 125.145 132.324 124.571 132.481L123.006 129.351Z" fill="#BABBAE"/>
<path d="M118.805 114.569C122.239 117.293 125.612 120.33 128.927 123.674L123.807 125.772C119.938 122.158 115.979 118.867 112.046 115.957C114.303 115.219 116.592 114.778 118.805 114.569Z" fill="#D2D5C6"/>
<path d="M123.848 125.495L126.05 124.775L128.834 123.565L132.559 124.97C129.974 127.195 126.783 128.664 123.032 129.382L122.457 128.676L123.848 125.495Z" fill="#D2D5C6"/>
<path d="M133.073 127.017C131.962 128.143 130.674 129.05 128.993 129.874C126.909 130.897 124.228 131.661 121.879 132.128L109.409 120.008" stroke="#887F7F" stroke-miterlimit="3" stroke-linecap="round"/>
<path d="M118.641 114.593L121.541 116.982L115.862 118.517L112.348 115.815C114.399 115.2 116.478 114.801 118.641 114.593Z" fill="#BABBAE"/>
<path d="M111.064 80.4187L111.021 81.1304L112.958 78.8536L112.952 78.2919L111.064 80.4187ZM110.959 82.1472L110.915 82.8589L112.853 80.5821L112.847 80.0204L110.959 82.1472ZM110.857 83.8248L110.813 84.5366L112.751 82.2598L112.745 81.698L110.857 83.8248ZM110.747 85.5699L110.703 86.2816L112.641 84.0048L112.635 83.4431L110.747 85.5699ZM114.118 77.0762L114.079 77.7159L115.821 75.6696L115.815 75.1648L114.118 77.0762ZM114.023 78.6297L113.985 79.2694L115.726 77.2231L115.721 76.7183L114.023 78.6297ZM113.932 80.1375L113.893 80.7771L115.634 78.7309L115.629 78.226L113.932 80.1375ZM113.833 81.7058L113.794 82.3455L115.536 80.2992L115.53 79.7944L113.833 81.7058ZM116.963 74.0941L116.928 74.6637L118.479 72.8415L118.474 72.3919L116.963 74.0941ZM116.878 75.4775L116.844 76.0471L118.395 74.2249L118.39 73.7753L116.878 75.4775ZM116.797 76.8202L116.762 77.3898L118.313 75.5676L118.308 75.118L116.797 76.8202ZM116.709 78.2168L116.674 78.7864L118.225 76.9642L118.22 76.5146L116.709 78.2168ZM119.469 71.643L119.438 72.1513L120.822 70.5253L120.818 70.1241L119.469 71.643ZM119.394 72.8775L119.363 73.3858L120.747 71.7597L120.743 71.3586L119.394 72.8775ZM119.321 74.0757L119.29 74.584L120.674 72.9579L120.67 72.5567L119.321 74.0757ZM119.243 75.322L119.212 75.8303L120.596 74.2042L120.591 73.803L119.243 75.322Z" fill="#CED0C0"/>
<g opacity="0.34">
<path opacity="0.34" d="M85.7074 56.4527H90.9163C93.5737 56.4527 95.7313 54.5335 95.7313 52.1695V34.117C95.7313 31.7531 93.5737 29.8339 90.9163 29.8339H75.4304L85.7074 56.4527Z" fill="white" fill-opacity="0.68"/>
</g>
<ellipse cx="92.2252" cy="118.113" rx="23.3841" ry="22.8873" fill="#FCFAFA"/>
<ellipse cx="141.119" cy="126.211" rx="14.8808" ry="14.7887" fill="#FCFAFA"/>
<ellipse cx="112.038" cy="116" rx="24.8013" ry="25" fill="#797979" fill-opacity="0.15"/>
<ellipse cx="116.318" cy="116" rx="24.8013" ry="25" fill="#FCFAFA"/>
<ellipse cx="64.5894" cy="125.507" rx="15.5894" ry="15.493" fill="#FCFAFA"/>
<ellipse cx="89.7521" cy="121" rx="20.6276" ry="20" fill="#FCFAFA"/>
<rect x="63.8808" y="126.915" width="77.2384" height="14.0845" fill="#FCFAFA"/>
</g>
</g>
<defs>
<clipPath id="clip0">
<rect width="157" height="157" fill="white"/>
</clipPath>
<clipPath id="clip1">
<rect width="179" height="179" fill="white" transform="translate(11.6685 -23) rotate(12.8037)"/>
</clipPath>
</defs>
</svg>
